<mxfile host="app.diagrams.net" modified="2020-11-29T01:05:34.694Z" agent="5.0 (Windows NT 10.0; Win64; x64) AppleWebKit/537.36 (KHTML, like Gecko) Chrome/87.0.4280.66 Safari/537.36" etag="fhYME45q82xgYiYwZcoK" version="13.10.4" type="github">
  <diagram id="lJusU90D1SwoFdwMNqTP" name="Page-1">
    <mxGraphModel dx="1038" dy="548" grid="1" gridSize="10" guides="1" tooltips="1" connect="1" arrows="1" fold="1" page="1" pageScale="1" pageWidth="850" pageHeight="1100" math="0" shadow="0">
      <root>
        <mxCell id="0" />
        <mxCell id="1" parent="0" />
        <mxCell id="3cMcINZh52HeWopU8un9-39" value="Listings" style="whiteSpace=wrap;html=1;align=center;" vertex="1" parent="1">
          <mxGeometry x="110" y="40" width="100" height="40" as="geometry" />
        </mxCell>
        <mxCell id="3cMcINZh52HeWopU8un9-40" value="listing_id" style="ellipse;whiteSpace=wrap;html=1;align=center;fontStyle=4;" vertex="1" parent="1">
          <mxGeometry x="100" y="310" width="100" height="40" as="geometry" />
        </mxCell>
        <mxCell id="3cMcINZh52HeWopU8un9-41" value="User" style="whiteSpace=wrap;html=1;align=center;" vertex="1" parent="1">
          <mxGeometry x="390" y="560" width="100" height="40" as="geometry" />
        </mxCell>
        <mxCell id="3cMcINZh52HeWopU8un9-42" value="Auth&lt;br&gt;" style="whiteSpace=wrap;html=1;align=center;" vertex="1" parent="1">
          <mxGeometry x="530" y="360" width="100" height="40" as="geometry" />
        </mxCell>
        <mxCell id="3cMcINZh52HeWopU8un9-43" value="Categories" style="whiteSpace=wrap;html=1;align=center;" vertex="1" parent="1">
          <mxGeometry x="170" y="420" width="100" height="40" as="geometry" />
        </mxCell>
        <mxCell id="3cMcINZh52HeWopU8un9-44" value="Location" style="whiteSpace=wrap;html=1;align=center;" vertex="1" parent="1">
          <mxGeometry x="600" y="150" width="100" height="40" as="geometry" />
        </mxCell>
        <mxCell id="3cMcINZh52HeWopU8un9-46" value="Listing" style="whiteSpace=wrap;html=1;align=center;" vertex="1" parent="1">
          <mxGeometry x="200" y="140" width="100" height="40" as="geometry" />
        </mxCell>
        <mxCell id="3cMcINZh52HeWopU8un9-47" value="Users_Listing" style="whiteSpace=wrap;html=1;align=center;" vertex="1" parent="1">
          <mxGeometry x="840" y="470" width="100" height="40" as="geometry" />
        </mxCell>
        <mxCell id="3cMcINZh52HeWopU8un9-55" value="" style="endArrow=none;html=1;rounded=0;entryX=0.172;entryY=1.02;entryDx=0;entryDy=0;entryPerimeter=0;" edge="1" parent="1" target="3cMcINZh52HeWopU8un9-46">
          <mxGeometry relative="1" as="geometry">
            <mxPoint x="150" y="310" as="sourcePoint" />
            <mxPoint x="310" y="310" as="targetPoint" />
          </mxGeometry>
        </mxCell>
        <mxCell id="3cMcINZh52HeWopU8un9-56" value="listing_name" style="ellipse;whiteSpace=wrap;html=1;align=center;" vertex="1" parent="1">
          <mxGeometry x="220" y="310" width="100" height="40" as="geometry" />
        </mxCell>
        <mxCell id="3cMcINZh52HeWopU8un9-57" value="listing_price" style="ellipse;whiteSpace=wrap;html=1;align=center;" vertex="1" parent="1">
          <mxGeometry x="340" y="310" width="100" height="40" as="geometry" />
        </mxCell>
        <mxCell id="3cMcINZh52HeWopU8un9-58" value="listing_description" style="ellipse;whiteSpace=wrap;html=1;align=center;" vertex="1" parent="1">
          <mxGeometry x="320" y="200" width="100" height="40" as="geometry" />
        </mxCell>
        <mxCell id="3cMcINZh52HeWopU8un9-59" value="" style="endArrow=none;html=1;rounded=0;entryX=0.484;entryY=-0.15;entryDx=0;entryDy=0;entryPerimeter=0;" edge="1" parent="1" target="3cMcINZh52HeWopU8un9-56">
          <mxGeometry relative="1" as="geometry">
            <mxPoint x="230" y="180" as="sourcePoint" />
            <mxPoint x="390" y="180" as="targetPoint" />
          </mxGeometry>
        </mxCell>
        <mxCell id="3cMcINZh52HeWopU8un9-60" value="" style="endArrow=none;html=1;rounded=0;entryX=0.292;entryY=0.07;entryDx=0;entryDy=0;entryPerimeter=0;" edge="1" parent="1" target="3cMcINZh52HeWopU8un9-57">
          <mxGeometry relative="1" as="geometry">
            <mxPoint x="260" y="180" as="sourcePoint" />
            <mxPoint x="420" y="180" as="targetPoint" />
          </mxGeometry>
        </mxCell>
        <mxCell id="3cMcINZh52HeWopU8un9-66" value="" style="endArrow=none;html=1;rounded=0;exitX=1;exitY=1;exitDx=0;exitDy=0;" edge="1" parent="1" source="3cMcINZh52HeWopU8un9-46" target="3cMcINZh52HeWopU8un9-58">
          <mxGeometry relative="1" as="geometry">
            <mxPoint x="290" y="170" as="sourcePoint" />
            <mxPoint x="450" y="170" as="targetPoint" />
          </mxGeometry>
        </mxCell>
        <mxCell id="3cMcINZh52HeWopU8un9-67" value="" style="endArrow=none;html=1;rounded=0;" edge="1" parent="1" source="3cMcINZh52HeWopU8un9-44" target="3cMcINZh52HeWopU8un9-68">
          <mxGeometry relative="1" as="geometry">
            <mxPoint x="540" y="400" as="sourcePoint" />
            <mxPoint x="700" y="400" as="targetPoint" />
          </mxGeometry>
        </mxCell>
        <mxCell id="3cMcINZh52HeWopU8un9-68" value="location_id" style="ellipse;whiteSpace=wrap;html=1;align=center;fontStyle=4;" vertex="1" parent="1">
          <mxGeometry x="490" y="280" width="100" height="40" as="geometry" />
        </mxCell>
        <mxCell id="3cMcINZh52HeWopU8un9-70" value="category_id" style="ellipse;whiteSpace=wrap;html=1;align=center;" vertex="1" parent="1">
          <mxGeometry x="20" y="500" width="100" height="40" as="geometry" />
        </mxCell>
        <mxCell id="3cMcINZh52HeWopU8un9-71" value="" style="endArrow=none;html=1;rounded=0;entryX=0;entryY=1;entryDx=0;entryDy=0;" edge="1" parent="1" target="3cMcINZh52HeWopU8un9-43">
          <mxGeometry relative="1" as="geometry">
            <mxPoint x="90" y="500" as="sourcePoint" />
            <mxPoint x="250" y="500" as="targetPoint" />
          </mxGeometry>
        </mxCell>
        <mxCell id="3cMcINZh52HeWopU8un9-73" value="category_name" style="ellipse;whiteSpace=wrap;html=1;align=center;" vertex="1" parent="1">
          <mxGeometry x="230" y="500" width="100" height="40" as="geometry" />
        </mxCell>
        <mxCell id="3cMcINZh52HeWopU8un9-75" value="" style="endArrow=none;html=1;rounded=0;entryX=0.592;entryY=1.015;entryDx=0;entryDy=0;entryPerimeter=0;" edge="1" parent="1" target="3cMcINZh52HeWopU8un9-43">
          <mxGeometry relative="1" as="geometry">
            <mxPoint x="270" y="500" as="sourcePoint" />
            <mxPoint x="430" y="500" as="targetPoint" />
          </mxGeometry>
        </mxCell>
        <mxCell id="3cMcINZh52HeWopU8un9-76" value="category_id" style="ellipse;whiteSpace=wrap;html=1;align=center;" vertex="1" parent="1">
          <mxGeometry x="375" y="140" width="100" height="40" as="geometry" />
        </mxCell>
        <mxCell id="3cMcINZh52HeWopU8un9-79" value="" style="endArrow=none;html=1;rounded=0;" edge="1" parent="1">
          <mxGeometry relative="1" as="geometry">
            <mxPoint x="300" y="160" as="sourcePoint" />
            <mxPoint x="380" y="160" as="targetPoint" />
          </mxGeometry>
        </mxCell>
        <mxCell id="3cMcINZh52HeWopU8un9-80" value="province" style="ellipse;whiteSpace=wrap;html=1;align=center;" vertex="1" parent="1">
          <mxGeometry x="610" y="280" width="100" height="40" as="geometry" />
        </mxCell>
        <mxCell id="3cMcINZh52HeWopU8un9-81" value="city" style="ellipse;whiteSpace=wrap;html=1;align=center;" vertex="1" parent="1">
          <mxGeometry x="720" y="280" width="100" height="40" as="geometry" />
        </mxCell>
        <mxCell id="3cMcINZh52HeWopU8un9-83" value="" style="endArrow=none;html=1;rounded=0;entryX=0.5;entryY=0;entryDx=0;entryDy=0;" edge="1" parent="1" target="3cMcINZh52HeWopU8un9-81">
          <mxGeometry relative="1" as="geometry">
            <mxPoint x="700" y="190" as="sourcePoint" />
            <mxPoint x="850" y="180" as="targetPoint" />
          </mxGeometry>
        </mxCell>
        <mxCell id="3cMcINZh52HeWopU8un9-84" value="" style="endArrow=none;html=1;rounded=0;entryX=0.728;entryY=0.115;entryDx=0;entryDy=0;entryPerimeter=0;exitX=0.75;exitY=1;exitDx=0;exitDy=0;" edge="1" parent="1" source="3cMcINZh52HeWopU8un9-44" target="3cMcINZh52HeWopU8un9-80">
          <mxGeometry relative="1" as="geometry">
            <mxPoint x="560" y="219.5" as="sourcePoint" />
            <mxPoint x="720" y="219.5" as="targetPoint" />
          </mxGeometry>
        </mxCell>
        <mxCell id="3cMcINZh52HeWopU8un9-86" value="" style="endArrow=none;html=1;rounded=0;exitX=1;exitY=0;exitDx=0;exitDy=0;" edge="1" parent="1" source="3cMcINZh52HeWopU8un9-46">
          <mxGeometry relative="1" as="geometry">
            <mxPoint x="250" y="120" as="sourcePoint" />
            <mxPoint x="327.11686747198337" y="99.32469879202495" as="targetPoint" />
          </mxGeometry>
        </mxCell>
        <mxCell id="3cMcINZh52HeWopU8un9-87" value="location_id" style="ellipse;whiteSpace=wrap;html=1;align=center;" vertex="1" parent="1">
          <mxGeometry x="300" y="60" width="100" height="40" as="geometry" />
        </mxCell>
        <mxCell id="3cMcINZh52HeWopU8un9-89" value="email" style="ellipse;whiteSpace=wrap;html=1;align=center;" vertex="1" parent="1">
          <mxGeometry x="450" y="460" width="100" height="40" as="geometry" />
        </mxCell>
        <mxCell id="3cMcINZh52HeWopU8un9-90" value="password" style="ellipse;whiteSpace=wrap;html=1;align=center;" vertex="1" parent="1">
          <mxGeometry x="570" y="460" width="100" height="40" as="geometry" />
        </mxCell>
        <mxCell id="3cMcINZh52HeWopU8un9-91" value="" style="endArrow=none;html=1;rounded=0;entryX=0.25;entryY=1;entryDx=0;entryDy=0;" edge="1" parent="1" target="3cMcINZh52HeWopU8un9-42">
          <mxGeometry relative="1" as="geometry">
            <mxPoint x="490" y="460" as="sourcePoint" />
            <mxPoint x="650" y="460" as="targetPoint" />
          </mxGeometry>
        </mxCell>
        <mxCell id="3cMcINZh52HeWopU8un9-92" value="refresh_token" style="ellipse;whiteSpace=wrap;html=1;align=center;" vertex="1" parent="1">
          <mxGeometry x="700" y="460" width="100" height="40" as="geometry" />
        </mxCell>
        <mxCell id="3cMcINZh52HeWopU8un9-94" value="" style="endArrow=none;html=1;rounded=0;" edge="1" parent="1" target="3cMcINZh52HeWopU8un9-90">
          <mxGeometry relative="1" as="geometry">
            <mxPoint x="590" y="400" as="sourcePoint" />
            <mxPoint x="750" y="400" as="targetPoint" />
          </mxGeometry>
        </mxCell>
        <mxCell id="3cMcINZh52HeWopU8un9-95" value="" style="endArrow=none;html=1;rounded=0;entryX=0.588;entryY=-0.025;entryDx=0;entryDy=0;entryPerimeter=0;" edge="1" parent="1" target="3cMcINZh52HeWopU8un9-92">
          <mxGeometry relative="1" as="geometry">
            <mxPoint x="620" y="400" as="sourcePoint" />
            <mxPoint x="780" y="400" as="targetPoint" />
          </mxGeometry>
        </mxCell>
        <mxCell id="3cMcINZh52HeWopU8un9-96" value="auth_id" style="ellipse;whiteSpace=wrap;html=1;align=center;" vertex="1" parent="1">
          <mxGeometry x="370" y="370" width="100" height="40" as="geometry" />
        </mxCell>
        <mxCell id="3cMcINZh52HeWopU8un9-97" value="" style="endArrow=none;html=1;rounded=0;" edge="1" parent="1">
          <mxGeometry relative="1" as="geometry">
            <mxPoint x="470" y="390" as="sourcePoint" />
            <mxPoint x="530" y="390" as="targetPoint" />
          </mxGeometry>
        </mxCell>
        <mxCell id="3cMcINZh52HeWopU8un9-98" value="Attribute" style="ellipse;whiteSpace=wrap;html=1;align=center;" vertex="1" parent="1">
          <mxGeometry x="290" y="630" width="100" height="40" as="geometry" />
        </mxCell>
        <mxCell id="3cMcINZh52HeWopU8un9-100" value="first_name" style="ellipse;whiteSpace=wrap;html=1;align=center;" vertex="1" parent="1">
          <mxGeometry x="460" y="630" width="100" height="40" as="geometry" />
        </mxCell>
        <mxCell id="3cMcINZh52HeWopU8un9-101" value="last_name" style="ellipse;whiteSpace=wrap;html=1;align=center;" vertex="1" parent="1">
          <mxGeometry x="590" y="630" width="100" height="40" as="geometry" />
        </mxCell>
        <mxCell id="3cMcINZh52HeWopU8un9-103" value="member_since" style="ellipse;whiteSpace=wrap;html=1;align=center;" vertex="1" parent="1">
          <mxGeometry x="730" y="630" width="100" height="40" as="geometry" />
        </mxCell>
      </root>
    </mxGraphModel>
  </diagram>
</mxfile>
